<?xml version="1.0" encoding="UTF-8"?>
<svg id="Capa_1" xmlns="http://www.w3.org/2000/svg" version="1.1" viewBox="0 0 800 800">
  <!-- Generator: Adobe Illustrator 29.5.0, SVG Export Plug-In . SVG Version: 2.1.0 Build 137)  -->
  <defs>
    <style>
      .st0 {
        fill: #e41b13;
      }
    </style>
  </defs>
  <path class="st0" d="M494.96,400.02L792.09,102.9c10.55-10.55,10.55-27.62,0-38.17l-56.79-56.81c-5.06-5.05-11.92-7.9-19.08-7.9s-14.03,2.85-19.09,7.9l-297.13,297.13L102.87,7.93C97.81,2.87,90.95.03,83.78.03s-14.03,2.85-19.08,7.9L7.91,64.73c-10.55,10.55-10.55,27.62,0,38.17l297.13,297.11L7.94,697.1c-10.55,10.55-10.55,27.62,0,38.17l56.79,56.81c5.05,5.05,11.92,7.9,19.08,7.9s14.03-2.85,19.09-7.9l297.09-297.1,297.1,297.1c5.06,5.05,11.92,7.9,19.09,7.9s14.03-2.85,19.08-7.9l56.79-56.81c10.55-10.55,10.55-27.62,0-38.17l-297.1-297.08Z"/>
</svg>