<?xml version="1.0" encoding="UTF-8"?>
<svg id="Vrstva_1" xmlns="http://www.w3.org/2000/svg" version="1.1" viewBox="0 0 79.03 88.75">
  <!-- Generator: Adobe Illustrator 29.5.0, SVG Export Plug-In . SVG Version: 2.1.0 Build 137)  -->
  <defs>
    <style>
      .st0 {
        fill: #005cbb;
      }
    </style>
  </defs>
  <path id="part" class="st0" d="M78.93,58.3c-.39-1.22-1.06-2.3-1.7-3.4-1.8-3.07-3.44-6.23-5.21-9.32-2.04-3.55-4.07-7.1-6.1-10.66-.51-.9-1.04-1.79-1.56-2.69-.42.18-.72.32-1.03.45-1.03.42-2.07.57-2.93-.31-.9-.92-1.55-2.04-2.05-3.21-.43-.99-.07-1.63.93-2.07.57-.24,1.11-.54,1.78-.87-1.96-3.62-3.85-7.13-5.75-10.64-1.45-2.68-2.91-5.35-4.38-8.02-1.27-2.3-2.57-4.58-3.83-6.89-.29-.53-.68-.66-1.24-.68-1.6-.07-2.96.75-4.39,1.23-2.36.79-4.72,1.57-7.08,2.35-2.39.79-4.75,1.66-7.13,2.46-2.65.89-5.3,1.81-7.96,2.68-3.77,1.23-7.51,2.54-11.27,3.81-.83.28-1.65.67-2.51.79-1.1.16-1.74.88-2.4,1.6-.26.28-.35.66-.14,1.1,1.82,3.74,3.62,7.49,5.4,11.25,2.04,4.31,4.03,8.64,6.08,12.94,2.66,5.6,5.33,11.18,8.02,16.76,2.25,4.66,4.53,9.3,6.81,13.94,1.25,2.55,2.43,5.13,3.83,7.55-1.16,3.02-2.56,5.97-.27,9.07-1.23.11-1.57-.11-1.87-1.04-.81-2.55-.26-4.93.87-7.28-1.74-4.12-3.68-8.18-5.67-12.4-1.43,2.57-2.18,5.11-2.22,7.88-.03,1.52.16,2.9.98,4.23.85,1.37,1.53,2.84,2.3,4.26.91,1.67,1.81,3.35,3.05,4.81.3.36.62.7,1.11.71,1.36.05,2.69.14,4.02-.41,10.02-4.14,19.93-8.53,29.87-12.83,3.05-1.32,6.08-2.66,9.14-3.95.81-.34,1.01-.85.67-1.61-.34-.75-.71-1.48-1.08-2.22-.29-.58-.32-1.29.1-1.66.53-.47.71-1.03.79-1.63.12-.81.41-1.43,1.16-1.83.45-.24.66-.72.73-1.21.14-.91.51-1.57,1.49-1.76.77-.14.82-.66.62-1.29h.02,0ZM32.59,70.92c.46-1.04.93-2.08,1.94-2.74.21-.14.42-.29.63-.44-7.57-15.83-15.08-31.5-22.62-47.25-.54.2-.95.41-1.38.51-1.63.37-3.71-.97-4.07-2.6-.38-1.71,1.21-3.31,3.01-3.14,1.13.1,1.82.66,2.26,1.65.33.72.71,1.42,1.16,2.31,9.98-3.74,20.08-7.01,30.15-10.52-.28-.85-.57-1.71-.82-2.57-.24-.82.18-1.9.91-2.36.79-.51,1.59-.23,2.24.21.79.54,1.24,1.4,1.38,2.37.15,1-.18,1.79-1.09,2.3-.27.15-.52.32-.74.46,7.82,15.06,16.12,29.8,24.19,44.61.47.21.84-.02,1.22-.1,2.45-.56,3.79.74,3.86,3,.06,1.85-1.51,2.46-3.21,1.87-.72-.25-1.18-.87-1.57-1.51-.29-.48-.59-.97-.93-1.52-10.89,4.28-21.67,8.76-32.67,12.9.34.99.9,1.92.96,2.98.06,1.04-.3,2.03-1.05,2.67-.69.59-1.69.88-2.54.25-1.28-.94-1.89-1.78-1.21-3.3v-.04h-.01ZM58.97,63.47c-.4.37-.87.4-1.27-.26.41-.34.58-1.08,1.27-.7.4.22.27.71,0,.96ZM54.55,65.74c-.41-.07-.9.3-1.22-.31.07-.47.33-.81.84-.69.46.11.52.52.38.99h0ZM49.53,67.62c-.31,0-.51-.14-.66-.46.24-.51.53-.89,1.16-.7.32.64-.1.9-.5,1.16ZM62.79,74.31c-3.07,1.41-6.17,2.75-9.31,4-.15.06-.28.18-.42.27-.33.12-.66.24-.99.36-.62.58-1.43.81-2.18,1.13-4.45,1.94-8.81,4.08-13.29,5.95-.77.32-1.44.9-2.32.98-.43.04-.82.02-.77-.58,3.55-1.96,7.32-3.45,10.98-5.17,5.65-2.65,11.44-4.99,17.28-7.2,2.14-.81,4.27-1.64,6.47-2.28-1.74,1.02-3.64,1.7-5.46,2.54h.01ZM68.38,71.72c.25-.31.6-.44.98-.49-.25.31-.59.45-.98.49ZM74.7,61.92c-.53.03-1.07.18-1.56.38-1.79.71-3.54,1.54-5.23,2.46-1.4.76-2.93,1.21-4.43,1.74-3.55,1.26-7.03,2.75-10.6,3.96-4.07,1.38-7.99,3.1-11.91,4.82-1.84.81-3.42,2.11-5.2,3.05,3.78-1.86,7.48-3.89,11.42-5.41,4.2-1.62,8.57-2.72,12.75-4.43-1.13.79-2.36,1.36-3.62,1.88-4.8,1.99-9.68,3.78-14.38,5.99-2.46,1.16-4.99,2.2-7.18,3.89.35-.19.7-.38,1.05-.57,5.1-2.84,10.53-4.94,15.92-7.13,6.99-2.85,13.95-5.76,20.92-8.65.46-.19.89-.46,1.39-.73.25.69.08,1.07-.57,1.28-1.86.61-3.78,1.04-5.54,1.94,1.98-.64,3.95-1.36,5.99-1.86.05.43-.23.46-.42.52-3.82,1.19-7.41,3.02-11.26,4.11-8.05,2.27-15.3,6.32-22.72,10.02-1.9.95-3.78,1.92-5.54,3.12,2.64-1.31,5.26-2.64,7.91-3.93,4.56-2.24,8.97-4.8,13.73-6.63,2.58-.99,5.24-1.77,7.87-2.65.03.07.06.14.08.21-3,1.23-6.01,2.46-9.01,3.68,4.49-1.57,8.82-3.54,13.44-4.76-11.17,4.86-22.53,9.29-33.16,15.32,12.27-6.62,25.42-11.26,38.05-17.12.24.47-.11.91.1,1.42-6.24,2.4-12.43,4.78-18.47,7.53-6.14,2.8-12.23,5.71-18.3,8.65,6.12-2.62,12.16-5.42,18.24-8.12,6.1-2.7,12.44-4.8,18.57-7.4.65.32.4.87.41,1.36-1.29.71-2.71.96-4.08,1.35.07-.28.42-.28.59-.53-.82.32-1.57.65-2.35.93-7.04,2.47-13.96,5.26-20.83,8.2-3.84,1.64-7.49,3.69-11.34,5.32-.71.3-1.43.67-1.95,1.29h0c-.85.11-.77-.68-1.03-1.11-.14-.22-.11-.54-.17-.86.31-.24.62-.48.93-.73-.3.08-.55.35-1.01.28.33-1.58.54-3.15,1.3-4.61,1.12-2.17,3.23-2.87,5.26-3.76,5.83-2.54,11.83-4.64,17.7-7.09,6.03-2.52,12.18-4.76,18.13-7.49.42-.19.85-.44,1.35-.41-.04,1.12-.22,1.26-1.29,1.31l.05-.03h0ZM67.57,67.85c-.53.43-1.14.53-1.77.6.54-.37,1.14-.54,1.77-.6Z"/>
  <path id="part1" class="st0" d="M33.3,83.67s-.03.02-.04.03c.02,0,.04-.02.06-.02h-.02Z"/>
  <path id="part2" class="st0" d="M18.33,50.37c-1.46-3.01-2.91-6.03-4.38-9.03-.38-.78-.79-1.55-1.27-2.49-.22.41-.36.62-.45.86-1.07,2.78-1.58,5.68-1.65,8.65-.02,1.06-.05,2.13.53,3.14.82,1.43,1.48,2.94,2.22,4.41.59,1.18,1.2,2.35,1.92,3.74.22-.65.35-1.07.5-1.49.81-2.26,1.32-4.65,2.69-6.69.28-.42.07-.75-.1-1.1,0,0-.01,0-.01,0ZM14.01,51.68c-.65-.05-.84-.53-.81-1.08.03-.64.16-1.36.94-1.39.74-.03.85.68.96,1.11,0,.95-.4,1.42-1.09,1.36Z"/>
  <path id="part3" class="st0" d="M11.29,35.93c-.96-1.87-1.85-3.76-2.76-5.66-.79-1.65-1.55-3.32-2.33-5-.38.23-.48.57-.64.86-1.16,2.18-1.52,4.57-1.71,6.98-.1,1.32-.26,2.73.29,3.97,1.33,2.94,2.78,5.83,4.17,8.74.07,0,.13-.03.19-.04.04-.19.06-.39.12-.57.75-2.52,1.19-5.17,2.64-7.42.44-.69.36-1.19.01-1.86h.02ZM7.35,37.56c-.77.17-1.02-.26-1.14-.85-.14-.68-.12-1.29.6-1.67.35-.18.71-.23.91.09.55.88.12,1.66-.38,2.44h.01Z"/>
  <path id="part4" class="st0" d="M24.83,63.94c-1.54-3.2-3.05-6.4-4.58-9.61-.16-.34-.23-.75-.64-.99-1.51,2.28-2.01,4.82-2.5,7.4-.28,1.48-.02,2.76.7,4.07,1.16,2.08,2.17,4.24,3.28,6.34.34.64.49,1.39,1.11,2,.35-2.9,1.43-5.45,2.7-7.93.24-.47.13-.84-.08-1.28h0ZM21.7,63.09c-.17.44-.4.86-.61,1.31-.81.1-1.15-.35-1.24-.94-.1-.7.09-1.36.74-1.75.29-.18.55.05.75.24.31.31.53.69.36,1.14Z"/>
  <path id="part5" class="st0" d="M4.9,22.49c-.97-1.92-2.14-3.74-2.87-5.78-.03-.09-.15-.14-.22-.21-2.47,2.93-2.38,12.6.14,15.83.05-.08.1-.14.12-.21.67-2.91,1.33-5.82,2.88-8.43.25-.43.17-.8-.04-1.2,0,0-.01,0-.01,0Z"/>
  <path id="part6" class="st0" d="M59.64,29.92c.13.22.26.44.39.66,1,1.82,1.05,1.83,2.96,1.12.62-.23,1.24-.64,1.88-.07.51-.32.47-.73.33-1.06-.53-1.19-1.08-2.38-1.81-3.46-.28-.42-.66-.6-1.17-.34-.63.32-1.28.6-1.92.92-1.28.65-1.39,1.05-.66,2.24h0Z"/>
  <path id="part7" class="st0" d="M52.08,78.67c-4.04,1.28-7.8,3.2-11.62,4.98,1.58-.52,3.08-1.26,4.6-1.93,2.3-1.01,4.59-2.07,7.01-2.79.33-.12.66-.24.99-.36-.35-.18-.67,0-.98.1Z"/>
  <path id="part8" class="st0" d="M68.74,54.14c-1.43-2.67-2.82-5.25-4.19-7.8-1.19-.07-2.31.1-3.37-.36-.68-.29-1.14-.76-1.29-1.47-.13-.63.41-.95.82-1.27,1.04-.83,1.18-1.21.85-2.49-.14-.53-.48-.97-.69-1.46-.28-.65-.71-.79-1.42-.75-1.59.11-3.04.66-4.53,1.15-2.25.74-4.53,1.28-6.91.66-2.27-.59-2.85-1.31-2.94-3.64-.92-.35-1.87-.71-2.86-1.08-.31.75-.11,1.34.11,1.92,1.11,2.92,2.23,5.83,3.33,8.75.2.53.54,1.04.27,1.68-.38-.16-.51-.46-.67-.71-1.84-2.79-3.68-5.59-5.51-8.4-.46-.7-1.03-1.27-1.87-1.57-1.07,2.23-1.9,4.55-3.24,6.65.29-2.48,1.49-4.71,1.9-7.13-.49-.4-1.01-.63-1.51-.71-.81-.12-1.81-.15-2.28.57-1.17,1.78-2.7,3.2-4.15,4.72-1.41,1.48-1.62,3.15-.61,4.45.76.98,1.77,1.67,2.85,2.25,1.33.71,2.63,1.44,3.64,2.6.78.9.99,1.95.46,3.06-.41.86-.41,1.68,0,2.52.2.41.39.82.59,1.23.74,1.47.39,2.81-.52,4.06-.26.36-.63.64-.98.99.76,1.37,1.12,2.91,2.1,4.4,10.85-4.27,21.69-8.54,32.61-12.84v.02h0ZM62.12,49.07c.48.45.98.61,1.61.79-.48.69-.05,1.4-.15,2.2-.7-.38-1-1.17-1.85-1.16.24-.59-.04-1.2.39-1.83ZM55.67,42.02c-.31.28-.54.23-.7-.15.34-.19.53-.08.7.15ZM53.8,44.23c.65.37,1.15.74,1.93.9-.84.54-.11,1.21-.39,1.8-.67-.25-.87-1.25-1.8-.87.04-.69.39-1.15.26-1.83ZM53.5,49.95c-.43.43-.64.19-.85-.27.48-.32.69-.12.85.27ZM49.68,42.41c-.48.44-.72.26-.92-.31.56-.4.78-.18.92.31ZM38.72,58.26c-.49-.03-.76-.34-.78-.82,0-.37.22-.59.58-.58.49,0,.76.3.84.76-.05.4-.21.68-.64.65h0ZM38.83,46.48c.81.62,1.67.89,2.63,1.03-.61,1.09-.77,2.16-.31,3.35-1.01-.69-1.55-2.09-3.16-1.87.61-.76.91-1.54.84-2.51ZM37.64,54.27c.41-.15.68-.06.76.37.04.19-.13.35-.3.32-.36-.06-.63-.24-.47-.69h.01ZM31.67,43.74c-.2.2-.42.11-.62,0-.34-.19-.58-.44-.36-.9.41-.12.77-.15,1.01.28.12.21.16.42-.03.61h0Z"/>
  <path id="part9" class="st0" d="M33.28,57.65c-.89-1.32-1.04-2.66-.36-4.1.12-.25.19-.53.27-.81.46-1.59.06-2.62-1.35-3.46-.9-.54-1.81-1.05-2.69-1.61-2.18-1.36-3.3-4.12-1.24-6.36.46-.5.89-1.03,1.39-1.49,1-.92,1.88-1.93,2.74-3.2-1.88.52-3.6,1-5.31,1.47-.14-.39.01-.49.2-.6.77-.42,1.52-.89,2.31-1.28,1.4-.7,2.81-1.36,4.22-2.03.42-.2.67-.5.7-.98.03-.52-.4-.57-.72-.71-1.64-.71-3.28-1.39-4.92-2.1-.34-.15-.75-.22-1.08-.76,2.6.19,4.76,1.48,7.14,1.87.32-.44.26-.88.13-1.32-.45-1.64-.93-3.28-1.32-4.93-.17-.72-.54-1.42-.37-2.44,2.4,2.16,3.67,5.15,6.34,7.02,1.06-1.78,1.95-3.49,2.78-5.39-.57,0-.97.05-1.36-.01-.75-.12-1.45-.39-1.72-1.19-.24-.72.06-1.31.58-1.83.44-.43.98-.68,1.53-.9,1.34-.54,2.7-1.04,4.03-1.6.61-.26,1.24-.56,1.44-1.36-.19-.08-.33-.19-.49-.2-1.34-.16-1.97-1.41-1.17-2.75.38-.63.8-1.23,1.22-1.87-.61-1.11-1.21-2.23-1.81-3.33-.22.01-.37-.02-.49.03-3.17,1.07-6.33,2.17-9.51,3.23-2.17.73-3.98,1.87-5.08,3.99-.34.66-.92,1.12-1.61,1.47-1.94.98-3.88.94-5.83.04-.89-.41-1.79-.52-2.73-.2-.73.24-1.49.41-2.17.74-1.01.48-2.19.57-3.12,1.33,1.71,4.23,3.44,8.39,5.73,12.43,1.39-.41,2.76-.62,4.13-.8,2.8-.39,5.5-.39,7.83,1.58.42.35.45.31.58.73-3.91-1.83-7.71-.68-11.73.37,4.43,8.81,8.59,17.57,12.67,26.58.47-1.21.88-2.23.19-3.26h.03ZM42.22,15.09c.07-.18.23-.27.4-.23.33.09.49.33.46.68-.19.27-.42.35-.7.14-.2-.15-.24-.36-.16-.59ZM37.8,20.57c.36-.15.64-.19.74.25.05.23-.08.41-.3.42-.41.02-.53-.23-.44-.66h0ZM28.81,23.08c.42-.12.6.23.97.32-.27.46.07.9,0,1.41-.56-.05-.49-.91-1.17-.71.08-.41.15-.72.2-1.02ZM21.47,25.44c-.82-.64-1.3-1.43-2.31-1.41.55-.52.45-1.21.59-1.95.69.41,1.22,1.03,2.11.85-.85.69-.6,1.5-.39,2.52h0ZM25.3,24.99c-.21.37-.47.34-.79,0,.06-.38.18-.67.6-.56.28.08.31.34.19.55h0ZM27.59,33.92c.38.06.56.34.59.76-.49.5-.93.55-1.33-.17.11-.45.36-.66.75-.6h-.01Z"/>
  <path id="part10" class="st0" d="M45.65,16.6c.19.33.46.27.67.33.95.29,1.08.66.53,1.47-.33.49-.82.77-1.32,1.05-1.24.7-2.63,1.05-3.95,1.58-.69.28-1.38.54-1.84,1.17-.51.71-.3,1.31.53,1.53.84.22,1.68.16,2.53.05,1.24-.15,2.48-.42,3.72-.09.95.26,1.8.69,2.2,1.67.31.76-.2,1.26-.65,1.71-.72.72-1.67,1.22-1.96,2.53-.32-.75-.21-1.19.16-1.56.42-.42.87-.82,1.31-1.22,1.03-.96.91-1.8-.37-2.43-.79-.39-1.63-.36-2.49-.38-1.3-.02-2.13.26-2.42,1.75-.31,1.6-.93,3.13-1.42,4.7.76.5,1.51.5,2.27.27,2.09-.62,4.18-1.26,6.27-1.89.28-.08.59-.3.79.06.1.27-.32.29-.15.59,1.85.06,3.75-.19,5.76.59-1.1-1.95-2.07-3.67-3.04-5.39-.71-1.25-1.28-2.59-2.53-3.45-.43-.3-.38-.85-.39-1.34,0-.39.1-.84-.34-1.12-.79,1.22-.76,1.41.23,2.32.27.25.56.49.8.77.61.71,1.15,1.49.74,2.46-.78,1.87-2.03,3.38-3.67,4.75-.16-.71.22-.97.52-1.25.99-.95,1.84-2.01,2.51-3.21.37-.67.4-1.3-.16-1.87-.42-.43-.83-.86-1.26-1.26-.8-.74-.92-1.37-.4-2.32.27-.5.38-1.06.12-1.55-.52-.99-1.11-1.94-1.71-2.95-.67.64-1.53.98-1.57,1.91,0,0-.02.02-.02.02ZM44.32,26.92c-.15.07-.32.13-.46-.03-.25-.27-.19-.54,0-.85.34-.09.55.03.74.17.13.33.02.56-.27.71h-.01Z"/>
  <path id="part11" class="st0" d="M54.22,32.6c-2.42.24-4.82.27-6.39-2.12-.49.12-.6.34-.3.72.2.24.41.46.61.71,1.06,1.34.17,3.62-1.54,3.92-.08,0-.18-.1-.26-.16.53-.85,1.72-1.11,1.83-2.19.12-1.15-.86-1.68-1.46-2.42-.96.48-1.82,1-2.74,1.35-1.03.39-1.34,1.11-1.3,2.09,2.52,1.19,5,2.36,7.48,3.54-1.6.23-2.85-.81-4.31-.95-.41,1.31.8,2.75,2.2,2.64,1.44-.11,2.85-.37,4.25-.8,2.37-.72,4.6-1.93,7.31-1.94-.82-1.51-1.58-2.92-2.33-4.3-1.05-.09-2.02-.2-3.03-.1h-.02ZM51.58,33.56c.54-.43.83-.3.97.36-.52.4-.79.21-.97-.36Z"/>
  <path id="part12" class="st0" d="M29.84,14.38c-2.7.87-5.38,1.73-8.26,2.66,4.35,1.99,6.55,1.16,8.26-2.66Z"/>
  <path id="part13" class="st0" d="M9.72,16.44c-.62-.11-1.08.14-1.49.6-.42.47-.34.96-.08,1.42.96,1.68,2.03,1.9,3.98,1.03-.15-.47-.27-.97-.48-1.43-.38-.83-.98-1.45-1.93-1.62Z"/>
  <path id="part14" class="st0" d="M34.94,57.7c-.64-1.31-1.12-2.64-.45-4.15.39-.87.09-1.74-.63-2.67.05,1.22-.21,2.15-.48,3.1-.32,1.13-.46,2.26.42,3.3.4.48.5,1.13.37,1.78-.14.69-.26,1.39-.59,2.03-.15.29-.26.58.16.75,1.57-1.03,1.98-2.57,1.2-4.15h0Z"/>
  <path id="part15" class="st0" d="M36.41,72.02c.31-1.23-.37-2.17-.83-3.27-1.13.59-1.73,1.49-2.13,2.5-.35.86.08,1.62.93,1.87.88.26,1.81-.27,2.03-1.1Z"/>
  <path id="part16" class="st0" d="M73.44,57.35c.57-.54.54-1.51-.05-2.15-.68-.74-1.61-.81-2.75-.17.12.5.64,1.65.84,1.88.57.66,1.5.87,1.96.44Z"/>
  <path id="part17" class="st0" d="M44.96,8.35c.27-.15.49-.23.67-.37.54-.43,1.27-.78.88-1.69-.47-1.12-1.36-1.69-2.28-1.49-.39.08-.72.33-.53.69.47.9.64,1.93,1.26,2.86Z"/>
  <path id="part18" class="st0" d="M61.11,45c.88.61,1.89.64,3.02.73-.39-1.25-1-2.27-1.64-3.44-.37.68-.87,1.06-1.43,1.42-.57.36-.51.9.05,1.29Z"/>
  <path id="part19" class="st0" d="M49.47,40.13c3.72.28,6.85-2.03,10.42-2.39-3.71-.22-6.85,2.03-10.42,2.39Z"/>
  <path id="part20" class="st0" d="M19.96,33.14c.07.23.11.49.4.67,2.62-.79,5.31-1.45,8.1-1.44-1.64-.55-8.21.08-8.5.78h0Z"/>
  <path id="part21" class="st0" d="M55.41,30.84c-1.1-.79-6.26-1.18-6.92-.55,2.23,1.27,4.63.23,6.92.55Z"/>
  <path id="part22" class="st0" d="M49.1,31.18c1.12.87,2.39,1.18,3.77,1.03,1.26-.13,2.51-.43,3.8-.27-2.43-1.22-5.1.04-7.58-.76,0,0,0,0,.01,0Z"/>
  <path id="part23" class="st0" d="M46.48,13.62c-.61.62-1.19,1.25-1.3,2.23,1.3-1.09,1.73-1.84,1.3-2.23Z"/>
  <path id="part24" class="st0" d="M37.99,79.5c-1.42.51-2.77,1.14-3.96,2.06,1.32-.69,2.64-1.38,3.96-2.06Z"/>
  <path id="part25" class="st0" d="M33.91,81.64s.08-.05.12-.08c-.04.02-.09.05-.13.07h.02,0Z"/>
  <path id="part26" class="st0" d="M33.37,83.64c1.06-.31,1.92-.99,2.85-1.54-.97.47-1.97.89-2.85,1.54Z"/>
  <path id="part27" class="st0" d="M33.3,83.67h0s.04-.01.06-.03c-.03,0-.05.02-.08.03h.02Z"/>
  <path id="part28" class="st0" d="M33.41,81.96c.13-.09.26-.18.39-.27-.15.07-.29.13-.44.2,0,.02.03.05.04.07h0Z"/>
  <path id="part29" class="st0" d="M33.91,81.64h0s-.06.03-.09.05c.03-.01.07-.03.1-.05h0Z"/>
</svg>